<svg width="200" height="38" viewBox="0 0 200 38" fill="none" xmlns="http://www.w3.org/2000/svg">
<path fill-rule="evenodd" clip-rule="evenodd" d="M78.9147 15.1701C78.3226 11.1636 81.7791 8.82509 85.2915 8.82509C88.195 8.82509 89.5194 10.7001 89.9173 11.6386C90.3153 12.5771 90.6863 14.453 90.6863 14.453C90.2432 13.5705 88.5526 12.7474 87.4978 12.7474C86.0085 12.7474 84.8012 13.9546 84.8012 15.4439C84.8012 16.9332 86.0085 18.1405 87.4978 18.1405C88.5915 18.1405 90.5386 17.5618 91.4958 16.6645C92.3738 15.7141 92.6458 14.4816 92.6458 12.9925C92.6458 9.06624 88.8545 5.8817 85.5289 5.8817C82.2034 5.8817 80.2697 6.56414 77.9254 7.81697C75.5811 9.0698 70.6409 12.8209 70.6409 12.8209C64.2093 19.4292 63.2288 23.3624 63.2288 26.2301C63.2288 30.4272 66.6311 33.8295 70.8282 33.8295C73.5308 33.8295 75.904 32.4186 77.2513 30.2932C76.3985 34.2756 72.8589 37.2615 68.6219 37.2615C63.7479 37.2615 59.6648 32.575 59.6648 27.701C59.6648 26.2301 59.9186 25.16 60.5887 22.6392C57.2481 26.6867 53.8524 30.0076 53.1519 30.6791C49.8491 33.8452 45.3671 35.7907 40.4306 35.7907C32.0669 35.7907 24.1724 29.1762 20.4122 19.9014C16.802 10.9968 12.3129 9.21211 9.29339 9.21211C6.27389 9.21211 5.36425 10.8519 5.36425 12.7474C5.36425 14.2062 6.77588 15.9427 8.05938 16.4394C7.51715 16.5895 6.94591 16.6696 6.35594 16.6696C2.83585 16.6696 8.13621e-10 13.7419 0 10.2221C-4.28457e-10 8.36849 0.841595 0.948401 10.0331 1.96113C14.8673 2.49377 20.8159 7.11693 22.8495 12.1481L24.971 18.0064V14.4633C24.971 7.55856 31.0744 1.96113 37.9792 1.96113C41.1099 1.96113 43.9719 3.11188 46.1652 5.01348C47.0276 5.50309 50.0424 7.5667 53.6756 7.94086C55.8086 8.16053 58.2358 6.82182 58.41 6.6655C58.9603 6.17181 59.3065 5.45518 59.3065 4.65768C59.3065 3.16842 58.0992 1.96113 56.61 1.96113C55.3591 1.96113 55.2562 2.13288 54.4018 3.24992C54.8383 0.98937 56.4282 -7.62939e-06 58.8162 -7.62939e-06C61.524 -7.62939e-06 63.7191 2.19507 63.7191 4.90282C63.7191 6.05023 62.6057 10.5126 57.6451 11.6613C55.5431 12.1481 52.3525 12.1558 49.9971 11.0055C50.3125 12.1036 50.4814 13.2638 50.4814 14.4633C50.4814 21.3681 45.4096 26.8905 38.5048 26.8905C35.6764 26.8905 30.8724 24.4577 30.8701 19.121C30.8686 15.6009 33.7237 12.7474 37.2438 12.7474C40.4207 12.7474 42.1466 15.9339 42.1466 15.9339C41.532 15.4723 40.7681 15.1988 39.9403 15.1988C37.9095 15.1988 36.2632 16.8451 36.2632 18.8759C36.2632 20.9067 37.9095 22.553 39.9403 22.553C41.0094 22.553 42.9829 22.1905 44.2244 20.9892C46.0206 19.2511 47.0494 17.1603 47.0494 14.4633C47.0494 9.18322 42.769 4.90282 37.4889 4.90282C32.2088 4.90282 27.4413 9.92971 27.4413 15.2098C27.013 19.2228 28.7097 22.6392 28.7097 22.6392C30.4756 26.9604 36.175 29.9073 41.4112 29.9073C46.2763 29.9073 50.4254 26.7083 53.3623 24.0239C56.2991 21.3394 67.596 10.2221 68.7943 9.21211C70.7256 7.58423 75.7742 3.94918 77.595 3.23432C79.4158 2.51946 82.3381 1.54788 86.7614 1.89352C92.6863 2.35651 98.0389 7.28057 98.0389 13.2376C98.0389 16.6081 96.3636 19.2523 94.0716 21.5954C94.0716 21.5954 93.1469 22.508 92.6708 23.3624C92.1948 24.2169 91.6652 24.9767 91.6652 25.985C91.6652 28.1512 93.4212 29.9073 95.5875 29.9073C97.7537 29.9073 99.5097 28.1512 99.5097 25.985C99.5097 25.6613 100 26.7498 100 27.701C100 31.0857 97.2562 33.8295 93.8715 33.8295C90.4868 33.8295 87.7429 31.0857 87.7429 27.701C87.7429 26.2505 88.2468 24.9177 89.0891 23.8682C88.4923 23.9705 87.8787 24.0239 87.2526 24.0239C84.6989 24.0239 83.2073 23.1108 81.5944 22.1947C81.5944 22.1947 79.3882 21.1217 78.7283 20.9892C78.0685 20.8568 75.2659 19.6936 73.5321 20.1629C71.7984 20.6321 71.2908 21.1499 71.2908 22.6392C71.2908 24.1284 72.4539 25.0573 73.9432 25.0573C74.4523 25.0573 76.0926 24.711 76.4988 24.4658C75.699 25.5897 74.2997 27.169 72.8151 27.169C70.3781 27.169 67.7785 26.112 67.7785 22.1947C67.7785 22.1947 67.8529 20.3181 69.7851 18.2979C71.9699 16.0136 77.9254 17.6587 80.1958 18.2979C80.1958 18.2979 79.1819 16.9506 78.9147 15.1701Z" fill="currentColor"/>
<path fill-rule="evenodd" clip-rule="evenodd" d="M120.085 15.3251C120.677 11.3468 117.221 9.02466 113.708 9.02466C110.805 9.02466 109.481 10.8865 109.083 11.8184C108.685 12.7504 108.314 14.6131 108.314 14.6131C108.757 13.7368 110.447 12.9194 111.502 12.9194C112.991 12.9194 114.199 14.1182 114.199 15.597C114.199 17.0758 112.991 18.2747 111.502 18.2747C110.409 18.2747 108.461 17.7001 107.504 16.8091C106.626 15.8654 106.354 14.6414 106.354 13.1628C106.354 9.26413 110.146 6.10193 113.471 6.10193C116.797 6.10193 118.73 6.77959 121.075 8.02362C123.419 9.26766 128.359 12.9924 128.359 12.9924C134.791 19.5544 135.771 23.46 135.771 26.3076C135.771 30.4751 132.369 33.8536 128.172 33.8536C125.469 33.8536 123.096 32.4526 121.749 30.3421C122.601 34.2966 126.141 37.2615 130.378 37.2615C135.252 37.2615 139.335 32.6078 139.335 27.7681C139.335 26.3076 139.081 25.245 138.411 22.7418C141.752 26.7609 145.148 30.0585 145.848 30.7253C149.151 33.8691 153.633 35.801 158.569 35.801C166.933 35.801 174.828 29.2329 178.588 20.0232C182.198 11.1812 186.687 9.40897 189.707 9.40897C192.726 9.40897 193.636 11.0373 193.636 12.9194C193.636 14.368 192.224 16.0923 190.941 16.5856C191.483 16.7345 192.054 16.8141 192.644 16.8141C196.164 16.8141 199 13.907 199 10.4118C199 8.57127 198.158 1.20326 188.967 2.20888C184.133 2.73778 178.184 7.3285 176.151 12.3243L174.029 18.1415V14.6233C174.029 7.76703 167.926 2.20888 161.021 2.20888C157.89 2.20888 155.028 3.35155 152.835 5.2398C151.972 5.72598 148.958 7.7751 145.324 8.14665C143.191 8.36477 140.764 7.03546 140.59 6.88023C140.04 6.39001 139.693 5.6784 139.693 4.88651C139.693 3.40769 140.901 2.20888 142.39 2.20888C143.641 2.20888 143.744 2.37942 144.598 3.48862C144.162 1.24394 142.572 0.261506 140.184 0.261506C137.476 0.261506 135.281 2.44117 135.281 5.12993C135.281 6.26929 136.394 10.7003 141.355 11.841C143.457 12.3243 146.648 12.332 149.003 11.1897C148.688 12.2802 148.519 13.4322 148.519 14.6233C148.519 21.4797 153.59 26.9633 160.495 26.9633C163.324 26.9633 168.128 24.5476 168.13 19.2483C168.131 15.753 165.276 12.9194 161.756 12.9194C158.579 12.9194 156.853 16.0836 156.853 16.0836C157.468 15.6252 158.232 15.3536 159.06 15.3536C161.09 15.3536 162.737 16.9884 162.737 19.0049C162.737 21.0215 161.09 22.6562 159.06 22.6562C157.991 22.6562 156.017 22.2963 154.776 21.1034C152.979 19.3775 151.951 17.3014 151.951 14.6233C151.951 9.38028 156.231 5.12993 161.511 5.12993C166.791 5.12993 171.559 10.1215 171.559 15.3646C171.987 19.3494 170.29 22.7418 170.29 22.7418C168.524 27.0327 162.825 29.9589 157.589 29.9589C152.724 29.9589 148.575 26.7824 145.638 24.1168C142.701 21.4511 131.404 10.4118 130.206 9.40897C128.274 7.79252 123.226 4.18298 121.405 3.47314C119.584 2.76329 116.662 1.79853 112.239 2.14175C106.314 2.60149 100.961 7.49098 100.961 13.4062C100.961 16.753 102.636 19.3787 104.928 21.7053C104.928 21.7053 105.853 22.6115 106.329 23.46C106.805 24.3084 107.335 25.0629 107.335 26.0641C107.335 28.2151 105.579 29.9589 103.413 29.9589C101.246 29.9589 99.4903 28.2151 99.4903 26.0641C99.4903 25.7427 99 26.8236 99 27.7681C99 31.129 101.744 33.8536 105.129 33.8536C108.513 33.8536 111.257 31.129 111.257 27.7681C111.257 26.3278 110.753 25.0044 109.911 23.9622C110.508 24.0638 111.121 24.1168 111.747 24.1168C114.301 24.1168 115.793 23.2101 117.406 22.3004C117.406 22.3004 119.612 21.235 120.272 21.1034C120.932 20.9719 123.734 19.8169 125.468 20.2829C127.202 20.7488 127.709 21.263 127.709 22.7418C127.709 24.2206 126.546 25.143 125.057 25.143C124.548 25.143 122.907 24.799 122.501 24.5556C123.301 25.6717 124.7 27.2398 126.185 27.2398C128.622 27.2398 131.222 26.1903 131.222 22.3004C131.222 22.3004 131.147 20.437 129.215 18.431C127.03 16.1627 121.075 17.7963 118.804 18.431C118.804 18.431 119.818 17.0931 120.085 15.3251Z" fill="currentColor"/>
</svg>
