<svg width="87" height="100" viewBox="0 0 87 100" fill="none" xmlns="http://www.w3.org/2000/svg">
<path fill-rule="evenodd" clip-rule="evenodd" d="M43.3013 0C45.1586 2.22569 46.5213 3.65045 47.3891 4.2743C48.6909 5.21007 49.7445 7.26278 49.7445 8.85292C55.3381 8.85292 59.3323 11.7941 59.3323 17.9185C59.3323 24.0429 54.9822 27.2527 50.2987 27.2527C47.1764 27.2527 44.8439 25.982 43.3013 23.4406C41.7586 25.982 39.4262 27.2527 36.3039 27.2527C31.6204 27.2527 27.2703 24.0429 27.2703 17.9185C27.2703 11.7941 31.2644 8.85292 36.8581 8.85292C36.8581 7.26278 37.9116 5.21007 39.2134 4.2743C40.0813 3.65045 41.4439 2.22569 43.3013 0ZM86.6025 25C85.6037 27.7214 85.0511 29.6138 84.9448 30.6773C84.7853 32.2726 83.5344 34.2114 82.1573 35.0064C84.9541 39.8507 84.404 44.7803 79.1001 47.8425C73.7963 50.9047 68.8415 48.7423 66.4997 44.6863C64.9386 41.9823 64.8728 39.3269 66.3024 36.7203C63.3302 36.655 61.0635 35.2704 59.5023 32.5664C57.1606 28.5104 57.7653 23.1382 63.0692 20.076C68.373 17.0138 72.9173 19.0022 75.7141 23.8465C77.0912 23.0514 79.3957 22.9375 80.857 23.597C81.8312 24.0366 83.7464 24.5043 86.6025 25ZM86.6025 75C83.7464 75.4957 81.8312 75.9634 80.857 76.403C79.3957 77.0625 77.0912 76.9486 75.7141 76.1535C72.9173 80.9978 68.373 82.9862 63.0692 79.924C57.7653 76.8618 57.1606 71.4896 59.5023 67.4336C61.0635 64.7296 63.3302 63.345 66.3024 63.2797C64.8728 60.6731 64.9386 58.0177 66.4997 55.3137C68.8415 51.2577 73.7963 49.0953 79.1001 52.1575C84.404 55.2197 84.9541 60.1493 82.1573 64.9936C83.5344 65.7886 84.7853 67.7274 84.9448 69.3227C85.0511 70.3862 85.6037 72.2786 86.6025 75ZM43.3013 100C41.4439 97.7743 40.0813 96.3495 39.2134 95.7257C37.9116 94.7899 36.8581 92.7372 36.8581 91.1471C31.2644 91.1471 27.2703 88.2059 27.2703 82.0815C27.2703 75.9571 31.6204 72.7473 36.3039 72.7473C39.4262 72.7473 41.7586 74.018 43.3013 76.5594C44.8439 74.018 47.1764 72.7473 50.2987 72.7473C54.9822 72.7473 59.3323 75.9571 59.3323 82.0815C59.3323 88.2059 55.3381 91.1471 49.7445 91.1471C49.7445 92.7372 48.6909 94.7899 47.3891 95.7257C46.5213 96.3495 45.1586 97.7743 43.3013 100ZM0 75C0.998815 72.2786 1.55139 70.3862 1.65773 69.3227C1.81723 67.7274 3.06815 65.7886 4.44525 64.9936C1.64842 60.1493 2.19852 55.2197 7.5024 52.1575C12.8063 49.0953 17.7611 51.2577 20.1028 55.3137C21.664 58.0177 21.7297 60.6731 20.3002 63.2797C23.2724 63.345 25.5391 64.7296 27.1002 67.4336C29.442 71.4896 28.8373 76.8618 23.5334 79.924C18.2295 82.9862 13.6853 80.9978 10.8885 76.1535C9.51135 76.9486 7.20687 77.0625 5.74558 76.403C4.77138 75.9634 2.85619 75.4957 0 75ZM0 25C2.85619 24.5043 4.77138 24.0366 5.74558 23.597C7.20687 22.9375 9.51135 23.0514 10.8885 23.8465C13.6853 19.0022 18.2295 17.0138 23.5334 20.076C28.8373 23.1382 29.442 28.5104 27.1002 32.5664C25.5391 35.2704 23.2724 36.655 20.3002 36.7203C21.7297 39.3269 21.664 41.9823 20.1028 44.6863C17.7611 48.7423 12.8063 50.9047 7.5024 47.8425C2.19852 44.7803 1.64842 39.8507 4.44525 35.0064C3.06815 34.2114 1.81723 32.2726 1.65773 30.6773C1.55139 29.6138 0.998815 27.7214 0 25ZM43.3013 3.1081C44.5521 4.35979 45.5805 5.37821 46.3864 6.16338C47.4765 7.22546 47.804 9.74001 47.804 10.9673C54.2457 10.9673 57.2889 13.1653 57.2889 17.9185C57.2889 22.6717 53.5769 25.2432 50.2987 25.2432C47.0205 25.2432 44.7811 22.7155 44.7811 19.4757C44.7811 16.2359 47.3122 15.5198 48.9533 15.5198C50.5944 15.5198 52.1601 17.1215 52.1601 18.9393C52.1601 20.1512 51.4254 20.8782 49.956 21.1202C50.8632 19.4757 49.9045 17.9185 48.2315 17.9185C46.5584 17.9185 46.2103 19.107 46.2103 20.1506C46.2103 21.1943 47.0615 23.045 49.7445 23.045C52.4274 23.045 54.5943 21.5425 54.5943 18.1033C54.5943 14.6641 51.2025 12.948 49.5032 12.948C48.3704 12.948 47.0744 13.2711 45.6152 13.9174C46.3864 11.3216 45.5653 9.06182 44.7811 8.13227C44.2583 7.51257 43.765 6.5385 43.3013 5.21007C42.8375 6.5385 42.3443 7.51257 41.8215 8.13227C41.0373 9.06182 40.2162 11.3216 40.9873 13.9174C39.5281 13.2711 38.2321 12.948 37.0993 12.948C35.4001 12.948 32.0083 14.6641 32.0083 18.1033C32.0083 21.5425 34.1751 23.045 36.8581 23.045C39.541 23.045 40.3922 21.1943 40.3922 20.1506C40.3922 19.107 40.0442 17.9185 38.3711 17.9185C36.698 17.9185 35.7394 19.4757 36.6465 21.1202C35.1771 20.8782 34.4424 20.1512 34.4424 18.9393C34.4424 17.1215 36.0082 15.5198 37.6493 15.5198C39.2903 15.5198 41.8215 16.2359 41.8215 19.4757C41.8215 22.7155 39.5821 25.2432 36.3039 25.2432C33.0256 25.2432 29.3136 22.6717 29.3136 17.9185C29.3136 13.1653 32.3569 10.9673 38.7985 10.9673C38.7985 9.74001 39.1261 7.22546 40.2162 6.16338C41.0221 5.37821 42.0504 4.35979 43.3013 3.1081ZM83.9109 26.5541C83.4523 28.2632 83.0845 29.663 82.8074 30.7535C82.4327 32.2286 80.4188 33.7695 79.356 34.3831C82.5768 39.9618 82.1949 43.6963 78.0785 46.0729C73.9621 48.4495 69.8791 46.5206 68.24 43.6815C66.6009 40.8425 67.6702 37.6393 70.476 36.0194C73.2817 34.3995 75.1675 36.2335 75.988 37.6547C76.8085 39.0759 76.2043 41.2328 74.6301 42.1417C73.5805 42.7476 72.5836 42.4748 71.6392 41.3233C73.517 41.2866 74.3863 39.6779 73.5497 38.2289C72.7132 36.78 71.5099 37.0728 70.6061 37.5946C69.7023 38.1164 68.5251 39.779 69.8666 42.1025C71.2081 44.426 73.5927 45.5513 76.5711 43.8317C79.5496 42.1121 79.3398 38.3166 78.4902 36.8451C77.9238 35.864 76.996 34.9032 75.7067 33.9626C78.3403 33.3325 79.8868 31.4916 80.2997 30.3477C80.575 29.5851 81.1719 28.6709 82.0905 27.605C80.7082 27.8676 79.618 27.9275 78.8199 27.7846C77.6228 27.5702 75.2552 27.989 73.3927 29.9548C73.2228 28.3679 72.8547 27.084 72.2883 26.1029C71.4387 24.6314 68.2566 22.552 65.2781 24.2716C62.2997 25.9912 62.0819 28.619 63.4234 30.9425C64.7649 33.2661 66.7932 33.0779 67.6971 32.556C68.6009 32.0342 69.4561 31.1385 68.6196 29.6896C67.783 28.2407 65.9551 28.1891 64.9845 29.797C64.4595 28.4033 64.7217 27.4036 65.7712 26.7976C67.3454 25.8887 69.5155 26.4439 70.336 27.8651C71.1565 29.2863 71.8019 31.8364 68.9962 33.4563C66.1904 35.0762 62.8817 34.4007 61.2426 31.5617C59.6035 28.7226 59.9744 24.2222 64.0908 21.8456C68.2072 19.469 71.6324 21.0055 74.8532 26.5841C75.9161 25.9705 78.2575 24.9969 79.7224 25.4099C80.8053 25.7153 82.2014 26.0966 83.9109 26.5541ZM83.9109 73.446C82.2014 73.9034 80.8053 74.2847 79.7224 74.5901C78.2575 75.0031 75.9161 74.0295 74.8532 73.4159C71.6324 78.9945 68.2072 80.531 64.0908 78.1544C59.9744 75.7778 59.6035 71.2774 61.2426 68.4383C62.8817 65.5993 66.1904 64.9238 68.9962 66.5437C71.8019 68.1636 71.1565 70.7137 70.336 72.1349C69.5155 73.5561 67.3454 74.1113 65.7712 73.2024C64.7217 72.5964 64.4595 71.5967 64.9845 70.203C65.9551 71.8109 67.783 71.7593 68.6196 70.3104C69.4561 68.8615 68.6009 67.9658 67.6971 67.444C66.7932 66.9221 64.7649 66.7339 63.4234 69.0575C62.0819 71.381 62.2997 74.0088 65.2781 75.7284C68.2566 77.448 71.4387 75.3686 72.2883 73.8971C72.8547 72.916 73.2228 71.6321 73.3927 70.0452C75.2552 72.011 77.6228 72.4298 78.8199 72.2154C79.618 72.0725 80.7082 72.1324 82.0905 72.395C81.1719 71.3291 80.575 70.4149 80.2997 69.6523C79.8868 68.5084 78.3403 66.6675 75.7067 66.0374C76.996 65.0968 77.9238 64.136 78.4902 63.1549C79.3398 61.6834 79.5496 57.8879 76.5711 56.1683C73.5927 54.4487 71.2081 55.574 69.8666 57.8975C68.5251 60.221 69.7023 61.8836 70.6061 62.4054C71.5099 62.9272 72.7132 63.22 73.5497 61.7711C74.3863 60.3221 73.517 58.7134 71.6392 58.6767C72.5836 57.5252 73.5805 57.2524 74.6301 57.8583C76.2043 58.7672 76.8085 60.9241 75.988 62.3453C75.1675 63.7665 73.2817 65.6005 70.476 63.9806C67.6702 62.3607 66.6009 59.1575 68.24 56.3185C69.8791 53.4794 73.9621 51.5505 78.0785 53.9271C82.1949 56.3037 82.5768 60.0382 79.356 65.6169C80.4188 66.2305 82.4327 67.7714 82.8074 69.2466C83.0845 70.3371 83.4523 71.7369 83.9109 73.446ZM43.3013 96.8919C42.0504 95.6402 41.0221 94.6218 40.2162 93.8366C39.1261 92.7745 38.7985 90.26 38.7985 89.0327C32.3569 89.0327 29.3136 86.8347 29.3136 82.0815C29.3136 77.3283 33.0256 74.7568 36.3039 74.7568C39.5821 74.7568 41.8215 77.2845 41.8215 80.5243C41.8215 83.7641 39.2903 84.4802 37.6493 84.4802C36.0082 84.4802 34.4424 82.8785 34.4424 81.0607C34.4424 79.8488 35.1771 79.1218 36.6465 78.8798C35.7394 80.5243 36.698 82.0815 38.3711 82.0815C40.0442 82.0815 40.3922 80.893 40.3922 79.8494C40.3922 78.8057 39.541 76.955 36.8581 76.955C34.1751 76.955 32.0083 78.4575 32.0083 81.8967C32.0083 85.3359 35.4001 87.052 37.0993 87.052C38.2321 87.052 39.5281 86.7289 40.9873 86.0826C40.2162 88.6784 41.0373 90.9382 41.8215 91.8677C42.3443 92.4874 42.8375 93.4615 43.3013 94.7899C43.765 93.4615 44.2583 92.4874 44.7811 91.8677C45.5653 90.9382 46.3864 88.6784 45.6152 86.0826C47.0744 86.7289 48.3704 87.052 49.5032 87.052C51.2025 87.052 54.5943 85.3359 54.5943 81.8967C54.5943 78.4575 52.4274 76.955 49.7445 76.955C47.0615 76.955 46.2103 78.8057 46.2103 79.8494C46.2103 80.893 46.5584 82.0815 48.2315 82.0815C49.9045 82.0815 50.8632 80.5243 49.956 78.8798C51.4254 79.1218 52.1601 79.8488 52.1601 81.0607C52.1601 82.8785 50.5944 84.4802 48.9533 84.4802C47.3122 84.4802 44.7811 83.7641 44.7811 80.5243C44.7811 77.2845 47.0205 74.7568 50.2987 74.7568C53.5769 74.7568 57.2889 77.3283 57.2889 82.0815C57.2889 86.8347 54.2457 89.0327 47.804 89.0327C47.804 90.26 47.4765 92.7745 46.3864 93.8366C45.5805 94.6218 44.5521 95.6402 43.3013 96.8919ZM2.69169 73.446C3.15027 71.7369 3.51807 70.3371 3.7951 69.2466C4.16983 67.7714 6.18373 66.2305 7.24655 65.6169C4.02572 60.0382 4.40766 56.3037 8.52406 53.9271C12.6405 51.5505 16.7234 53.4794 18.3625 56.3185C20.0016 59.1575 18.9323 62.3607 16.1266 63.9806C13.3208 65.6005 11.4351 63.7665 10.6145 62.3453C9.794 60.9241 10.3982 58.7672 11.9725 57.8583C13.022 57.2524 14.0189 57.5252 14.9633 58.6767C13.0855 58.7134 12.2163 60.3221 13.0528 61.7711C13.8893 63.22 15.0926 62.9272 15.9964 62.4054C16.9003 61.8836 18.0775 60.221 16.736 57.8975C15.3945 55.574 13.0099 54.4487 10.0314 56.1683C7.05298 57.8879 7.2627 61.6834 8.11231 63.1549C8.67872 64.136 9.60657 65.0968 10.8959 66.0374C8.26222 66.6675 6.71576 68.5084 6.30285 69.6523C6.02757 70.4149 5.43064 71.3291 4.51205 72.395C5.89438 72.1324 6.98458 72.0725 7.78266 72.2154C8.97976 72.4298 11.3473 72.011 13.2098 70.0452C13.3797 71.6321 13.7479 72.916 14.3143 73.8971C15.1639 75.3686 18.346 77.448 21.3244 75.7284C24.3029 74.0088 24.5207 71.381 23.1792 69.0575C21.8377 66.7339 19.8093 66.9221 18.9055 67.444C18.0016 67.9658 17.1464 68.8615 17.983 70.3104C18.8195 71.7593 20.6474 71.8109 21.618 70.203C22.1431 71.5967 21.8809 72.5964 20.8314 73.2024C19.2571 74.1113 17.0871 73.5561 16.2666 72.1349C15.446 70.7137 14.8006 68.1636 17.6064 66.5437C20.4121 64.9238 23.7208 65.5993 25.36 68.4383C26.9991 71.2774 26.6281 75.7778 22.5117 78.1544C18.3953 80.531 14.9701 78.9945 11.7493 73.4159C10.6865 74.0295 8.34503 75.0031 6.88018 74.5901C5.79727 74.2847 4.40111 73.9034 2.69169 73.446ZM2.69169 26.5541C4.40111 26.0966 5.79727 25.7153 6.88018 25.4099C8.34503 24.9969 10.6865 25.9705 11.7493 26.5841C14.9701 21.0055 18.3953 19.469 22.5117 21.8456C26.6281 24.2222 26.9991 28.7226 25.36 31.5617C23.7208 34.4007 20.4121 35.0762 17.6064 33.4563C14.8006 31.8364 15.446 29.2863 16.2666 27.8651C17.0871 26.4439 19.2571 25.8887 20.8314 26.7976C21.8809 27.4036 22.1431 28.4033 21.618 29.797C20.6474 28.1891 18.8195 28.2407 17.983 29.6896C17.1464 31.1385 18.0016 32.0342 18.9055 32.556C19.8093 33.0779 21.8377 33.2661 23.1792 30.9425C24.5207 28.619 24.3029 25.9912 21.3244 24.2716C18.346 22.552 15.1639 24.6314 14.3143 26.1029C13.7479 27.084 13.3797 28.3679 13.2098 29.9548C11.3473 27.989 8.97976 27.5702 7.78266 27.7846C6.98458 27.9275 5.89438 27.8676 4.51205 27.605C5.43064 28.6709 6.02757 29.5851 6.30285 30.3477C6.71576 31.4916 8.26222 33.3325 10.8959 33.9626C9.60657 34.9032 8.67872 35.864 8.11231 36.8451C7.2627 38.3166 7.05298 42.1121 10.0314 43.8317C13.0099 45.5513 15.3945 44.426 16.736 42.1025C18.0775 39.779 16.9003 38.1164 15.9964 37.5946C15.0926 37.0728 13.8893 36.78 13.0528 38.2289C12.2163 39.6779 13.0855 41.2866 14.9633 41.3233C14.0189 42.4748 13.022 42.7476 11.9725 42.1417C10.3982 41.2328 9.794 39.0759 10.6145 37.6547C11.4351 36.2335 13.3208 34.3995 16.1266 36.0194C18.9323 37.6393 20.0016 40.8425 18.3625 43.6815C16.7234 46.5206 12.6405 48.4495 8.52406 46.0729C4.40766 43.6963 4.02572 39.9618 7.24655 34.3831C6.18373 33.7695 4.16983 32.2286 3.7951 30.7535C3.51807 29.663 3.15027 28.2632 2.69169 26.5541Z" fill="currentColor"/>
</svg>
