<svg width="100" height="47" viewBox="0 0 100 47" fill="none" xmlns="http://www.w3.org/2000/svg">
<path fill-rule="evenodd" clip-rule="evenodd" d="M50 9.11335C54.3929 10.9629 55.374 15.5738 52.9434 22.946C62.6979 18.6209 68.4428 20.964 70.8478 27.4421C73.2527 33.9203 60.9523 42.7666 58.5255 35.9712C56.0988 29.1757 64.6412 33.7769 65.8648 30.5004C67.0885 27.2238 64.304 25.7793 59.5588 25.7793C54.8136 25.7793 52.5127 30.2436 52.5127 33.7769C52.5127 37.3102 55.2978 44.0514 63.3001 44.0514C68.6349 44.0514 72.4858 41.358 74.8527 35.9712C76.6642 40.8166 83.1087 43.8976 94.186 45.2142L56.8843 0C67.3073 1.3851 73.3949 4.42124 75.1473 9.10842C77.5142 3.72158 81.3651 1.02816 86.6999 1.02816C94.7022 1.02816 97.4873 7.76938 97.4873 11.3027C97.4873 14.836 95.1864 19.3003 90.4412 19.3003C85.696 19.3003 82.9115 17.8557 84.1352 14.5792C85.3588 11.3027 93.9012 15.9039 91.4745 9.10842C89.0477 2.31294 77.8675 8.91407 79.8956 16.2162C81.9237 23.5184 87.3021 26.4587 97.0566 22.1336C94.626 29.5058 95.6071 34.1167 100 35.9662V46.377H0V35.9662C4.39291 34.1167 5.37404 29.5058 2.94339 22.1336C12.6979 26.4587 18.0763 23.5184 20.1044 16.2162C22.1325 8.91407 10.9523 2.31294 8.52552 9.10842C6.09876 15.9039 14.6412 11.3027 15.8648 14.5792C17.0885 17.8557 14.304 19.3003 9.55879 19.3003C4.81362 19.3003 2.5127 14.836 2.5127 11.3027C2.5127 7.76938 5.29784 1.02816 13.3001 1.02816C18.6349 1.02816 22.4857 3.72158 24.8526 9.10842C26.6051 4.42124 32.6927 1.3851 43.1157 0L5.81395 45.2142C16.8913 43.8976 23.3358 40.8166 25.1474 35.9712C27.5143 41.358 31.3651 44.0514 36.6999 44.0514C44.7022 44.0514 47.4873 37.3102 47.4873 33.7769C47.4873 30.2436 45.1864 25.7793 40.4412 25.7793C35.696 25.7793 32.9115 27.2238 34.1352 30.5004C35.3588 33.7769 43.9012 29.1757 41.4745 35.9712C39.0477 42.7666 27.0417 34.2572 29.5591 27.4421C32.0765 20.627 37.3021 18.6209 47.0566 22.946C44.626 15.5738 45.6071 10.9629 50 9.11335Z" fill="currentColor"/>
</svg>
