<svg width="100" height="23" viewBox="0 0 100 23" fill="none" xmlns="http://www.w3.org/2000/svg">
<path fill-rule="evenodd" clip-rule="evenodd" d="M40.716 22.0588C32.3791 22.0588 27.0922 16.1867 25.7353 14.7542C24.3784 13.3216 19.0862 5.73646 10.7546 5.57806C4.84607 5.57806 3.24682 8.43889 3.24682 11.3795C3.24682 14.3201 4.29959 19.0286 11.3262 19.0286C18.3528 19.0286 17.6929 10.8479 13.259 10.8479C8.825 10.8479 10.7546 16.3614 10.7546 16.3614C10.7546 16.3614 8.06467 15.214 8.06467 12.1976C8.06467 9.18115 11.0322 7.957 13.259 7.957C15.4858 7.957 19.4629 9.72595 19.4629 13.1269H22.6306L22.3565 16.7775C22.3565 16.7775 24.5343 16.2142 27.0922 17.806C29.65 19.3977 29.4055 22.0588 29.4055 22.0588C29.4055 22.0588 26.3075 19.7362 22.3565 19.7362C18.4056 19.7362 19.1486 22.0588 11.3262 22.0588C3.50381 22.0588 0 17.4369 0 11.3795C0 5.32218 3.94026 2.3363 10.7546 2.3363C19.7455 2.3363 24.3784 8.16465 25.7353 9.64094C27.0922 11.1172 32.0077 18.6472 40.716 18.8171C46.6245 18.8171 48.2238 15.9562 48.2238 13.0156C48.2238 10.075 47.171 5.36651 40.1444 5.36651C33.1178 5.36651 33.7777 13.5472 38.2116 13.5472C42.6456 13.5472 40.716 8.03373 40.716 8.03373C40.716 8.03373 43.4059 9.18115 43.4059 12.1976C43.4059 15.214 40.4384 16.4381 38.2116 16.4381C35.9848 16.4381 32.0077 14.6692 32.0077 11.2683H28.84L29.114 7.61762C29.114 7.61762 26.9363 8.18091 24.3784 6.58915C21.8206 4.9974 22.0651 2.3363 22.0651 2.3363C22.0651 2.3363 25.1631 4.6589 29.114 4.6589C33.065 4.6589 32.322 2.3363 40.1444 2.3363C43.1482 2.3363 45.5151 3.01783 47.2915 4.20045C47.2915 4.20045 47.64 2.66975 48.4345 1.63128C48.7661 1.19797 49.4687 0.288734 50 0C50.5313 0.288734 51.2339 1.19797 51.5655 1.63128C52.36 2.66975 52.7085 4.20045 52.7085 4.20045C54.4849 3.01783 56.8518 2.3363 59.8556 2.3363C67.678 2.3363 66.935 4.6589 70.8859 4.6589C74.8369 4.6589 77.9349 2.3363 77.9349 2.3363C77.9349 2.3363 78.1794 4.9974 75.6216 6.58915C73.0637 8.18091 70.8859 7.61762 70.8859 7.61762L71.16 11.2683H67.9923C67.9923 14.6692 64.0152 16.4381 61.7884 16.4381C59.5616 16.4381 56.5941 15.214 56.5941 12.1976C56.5941 9.18115 59.284 8.03373 59.284 8.03373C59.284 8.03373 57.3544 13.5472 61.7884 13.5472C66.2223 13.5472 66.8822 5.36651 59.8556 5.36651C52.829 5.36651 51.7762 10.075 51.7762 13.0156C51.7762 15.9562 53.3755 18.8171 59.284 18.8171C67.9923 18.6472 72.9078 11.1172 74.2647 9.64094C75.6216 8.16465 80.2545 2.3363 89.2454 2.3363C96.0597 2.3363 100 5.32218 100 11.3795C100 17.4369 96.4962 22.0588 88.6738 22.0588C80.8514 22.0588 81.5944 19.7362 77.6435 19.7362C73.6925 19.7362 70.5945 22.0588 70.5945 22.0588C70.5945 22.0588 70.35 19.3977 72.9078 17.806C75.4657 16.2142 77.6435 16.7775 77.6435 16.7775L77.3694 13.1269H80.5371C80.5371 9.72595 84.5142 7.957 86.741 7.957C88.9678 7.957 91.9353 9.18115 91.9353 12.1976C91.9353 15.214 89.2454 16.3614 89.2454 16.3614C89.2454 16.3614 91.175 10.8479 86.741 10.8479C82.3071 10.8479 81.6472 19.0286 88.6738 19.0286C95.7004 19.0286 96.7532 14.3201 96.7532 11.3795C96.7532 8.43889 95.1539 5.57806 89.2454 5.57806C80.9138 5.73646 75.6216 13.3216 74.2647 14.7542C72.9078 16.1867 67.6209 22.0588 59.284 22.0588C54.8499 22.0588 51.7065 20.7945 50 18.2424C48.2935 20.7945 45.1501 22.0588 40.716 22.0588Z" fill="black"/>
</svg>
