<svg width="46" height="30" viewBox="0 0 46 30" fill="none" xmlns="http://www.w3.org/2000/svg">
<path fill-rule="evenodd" clip-rule="evenodd" d="M23 0C25.771 2.93272 26.3581 6.50753 24.7612 10.7244C27.8661 6.13976 31.8144 2.79023 39.5713 3.17699C41.3003 3.2632 43.4432 2.57616 46 1.11588C44.2981 8.08825 40.1979 10.8116 33.6995 9.28604C36.3243 11.224 37.6368 13.374 37.6368 15.7362C37.6368 19.2795 34.598 21.3373 31.8048 21.3373C29.9427 21.3373 28.466 19.8724 27.3748 16.9425C29.065 18.2375 30.5417 18.2375 31.8048 16.9425C33.6995 15 31.4467 11.3952 29.0116 11.3952C26.5766 11.3952 24.7612 13.7007 25.4272 16.9425C26.0931 20.1843 26.8562 22.4453 30.0674 24.0267C33.2786 25.608 37.6368 24.3817 40.4651 25.3519C42.3507 25.9986 43.7468 27.548 44.6535 30C42.5917 28.9876 40.4489 28.4814 38.2251 28.4814C34.8895 28.4814 31.2848 28.2146 27.3748 26.1206C24.7681 24.7247 23.3099 21.4126 23 16.1844C22.6901 21.4126 21.2319 24.7247 18.6252 26.1206C14.7152 28.2146 11.1105 28.4814 7.77487 28.4814C5.55114 28.4814 3.40834 28.9876 1.34647 30C2.25316 27.548 3.64929 25.9986 5.53486 25.3519C8.36321 24.3817 12.7214 25.608 15.9326 24.0267C19.1438 22.4453 19.9069 20.1843 20.5728 16.9425C21.2388 13.7007 19.4234 11.3952 16.9884 11.3952C14.5533 11.3952 12.3005 15 14.1952 16.9425C15.4583 18.2375 16.935 18.2375 18.6252 16.9425C17.534 19.8724 16.0573 21.3373 14.1952 21.3373C11.402 21.3373 8.36321 19.2795 8.36321 15.7362C8.36321 13.374 9.67565 11.224 12.3005 9.28604C5.8021 10.8116 1.70193 8.08825 0 1.11588C2.55676 2.57616 4.69967 3.2632 6.42871 3.17699C14.1856 2.79023 18.1339 6.13976 21.2388 10.7244C19.6419 6.50753 20.229 2.93272 23 0Z" fill="currentColor"/>
</svg>
